<mxfile host="app.diagrams.net" modified="2022-02-11T09:53:23.379Z" agent="5.0 (Macintosh)" etag="BWgLwe8g014tgwTvduS4" version="16.5.3" type="github">
  <diagram id="xp_RTmUdlKiue2wYIl9F" name="Page-1">
    <mxGraphModel dx="946" dy="515" grid="1" gridSize="10" guides="1" tooltips="1" connect="1" arrows="1" fold="1" page="1" pageScale="1" pageWidth="850" pageHeight="1100" math="0" shadow="0">
      <root>
        <mxCell id="0" />
        <mxCell id="1" parent="0" />
        <mxCell id="UdAvU8H2Gq9x_DnB5OPP-1" value="&lt;div&gt;Highly distributed planning solution let&#39;s get input from 3rd party system&lt;/div&gt;&lt;div&gt;&lt;br&gt;&lt;/div&gt;&lt;div&gt;historical demands(10m lines)&lt;br&gt;&lt;/div&gt;&lt;div&gt;&lt;br&gt;&lt;/div&gt;&lt;div&gt;Return plan to the opportunistic users &lt;br&gt;&lt;/div&gt;&lt;div&gt;supply()&lt;/div&gt;&lt;div&gt;&lt;br&gt;&lt;/div&gt;&lt;div&gt;10 demands =&amp;gt; multiple supplies&lt;/div&gt;&lt;div&gt;&lt;br&gt;&lt;/div&gt;&lt;div&gt;single lines come&lt;br&gt;&lt;/div&gt;&lt;div&gt;&lt;br&gt;&lt;/div&gt;&lt;div&gt;&lt;br&gt;&lt;/div&gt;&lt;div&gt;10000 companies to demand/supply&lt;br&gt;&lt;/div&gt;" style="text;html=1;strokeColor=none;fillColor=none;align=center;verticalAlign=middle;whiteSpace=wrap;rounded=0;" vertex="1" parent="1">
          <mxGeometry x="10" y="10" width="330" height="220" as="geometry" />
        </mxCell>
        <mxCell id="UdAvU8H2Gq9x_DnB5OPP-2" value="&lt;div&gt;&lt;br&gt;&lt;/div&gt;&lt;div&gt;&lt;br&gt;&lt;/div&gt;&lt;div&gt;Product&lt;/div&gt;&lt;div&gt;Quantity&lt;/div&gt;&lt;div&gt;Date of Sale&lt;/div&gt;&lt;div&gt;Customer Name&lt;br&gt;&lt;/div&gt;&lt;div&gt;&lt;br&gt;&lt;/div&gt;" style="text;html=1;strokeColor=none;fillColor=none;spacing=5;spacingTop=-20;whiteSpace=wrap;overflow=hidden;rounded=0;" vertex="1" parent="1">
          <mxGeometry x="360" y="10" width="200" height="80" as="geometry" />
        </mxCell>
        <mxCell id="UdAvU8H2Gq9x_DnB5OPP-4" value="&lt;div&gt;1kb * 10m * 10k&lt;/div&gt;&lt;div&gt;10 * 10 000&lt;/div&gt;&lt;div&gt;100 petabyte&lt;/div&gt;" style="text;html=1;strokeColor=none;fillColor=none;align=center;verticalAlign=middle;whiteSpace=wrap;rounded=0;" vertex="1" parent="1">
          <mxGeometry x="360" y="100" width="120" height="80" as="geometry" />
        </mxCell>
        <mxCell id="UdAvU8H2Gq9x_DnB5OPP-5" value="base on product per customer" style="text;html=1;strokeColor=none;fillColor=none;align=center;verticalAlign=middle;whiteSpace=wrap;rounded=0;" vertex="1" parent="1">
          <mxGeometry x="610" y="30" width="180" height="30" as="geometry" />
        </mxCell>
        <mxCell id="UdAvU8H2Gq9x_DnB5OPP-6" value="&lt;div&gt;Demand&lt;/div&gt;&lt;div&gt;API&lt;/div&gt;" style="rounded=1;whiteSpace=wrap;html=1;" vertex="1" parent="1">
          <mxGeometry x="90" y="270" width="120" height="60" as="geometry" />
        </mxCell>
        <mxCell id="UdAvU8H2Gq9x_DnB5OPP-7" value="&lt;div&gt;Supply&lt;br&gt;&lt;/div&gt;&lt;div&gt;API&lt;/div&gt;" style="rounded=1;whiteSpace=wrap;html=1;" vertex="1" parent="1">
          <mxGeometry x="90" y="370" width="120" height="60" as="geometry" />
        </mxCell>
        <mxCell id="UdAvU8H2Gq9x_DnB5OPP-13" style="edgeStyle=orthogonalEdgeStyle;rounded=0;orthogonalLoop=1;jettySize=auto;html=1;startArrow=none;" edge="1" parent="1" source="UdAvU8H2Gq9x_DnB5OPP-14" target="UdAvU8H2Gq9x_DnB5OPP-12">
          <mxGeometry relative="1" as="geometry" />
        </mxCell>
        <mxCell id="UdAvU8H2Gq9x_DnB5OPP-9" value="Cassandra" style="shape=cylinder3;whiteSpace=wrap;html=1;boundedLbl=1;backgroundOutline=1;size=15;" vertex="1" parent="1">
          <mxGeometry x="360" y="310" width="100" height="90" as="geometry" />
        </mxCell>
        <mxCell id="UdAvU8H2Gq9x_DnB5OPP-10" value="" style="endArrow=classic;html=1;rounded=0;exitX=1;exitY=0.5;exitDx=0;exitDy=0;entryX=0;entryY=0.5;entryDx=0;entryDy=0;entryPerimeter=0;" edge="1" parent="1" source="UdAvU8H2Gq9x_DnB5OPP-6" target="UdAvU8H2Gq9x_DnB5OPP-9">
          <mxGeometry width="50" height="50" relative="1" as="geometry">
            <mxPoint x="270" y="290" as="sourcePoint" />
            <mxPoint x="320" y="240" as="targetPoint" />
          </mxGeometry>
        </mxCell>
        <mxCell id="UdAvU8H2Gq9x_DnB5OPP-11" value="" style="endArrow=classic;html=1;rounded=0;entryX=1;entryY=0.5;entryDx=0;entryDy=0;exitX=0;exitY=0.5;exitDx=0;exitDy=0;exitPerimeter=0;" edge="1" parent="1" source="UdAvU8H2Gq9x_DnB5OPP-9" target="UdAvU8H2Gq9x_DnB5OPP-7">
          <mxGeometry width="50" height="50" relative="1" as="geometry">
            <mxPoint x="260" y="430" as="sourcePoint" />
            <mxPoint x="310" y="380" as="targetPoint" />
          </mxGeometry>
        </mxCell>
        <mxCell id="UdAvU8H2Gq9x_DnB5OPP-12" value="object-storage" style="rounded=1;whiteSpace=wrap;html=1;" vertex="1" parent="1">
          <mxGeometry x="630" y="325" width="120" height="60" as="geometry" />
        </mxCell>
        <mxCell id="UdAvU8H2Gq9x_DnB5OPP-14" value="background process(30 days retention)" style="shape=process;whiteSpace=wrap;html=1;backgroundOutline=1;" vertex="1" parent="1">
          <mxGeometry x="500" y="325" width="90" height="60" as="geometry" />
        </mxCell>
        <mxCell id="UdAvU8H2Gq9x_DnB5OPP-15" value="" style="edgeStyle=orthogonalEdgeStyle;rounded=0;orthogonalLoop=1;jettySize=auto;html=1;endArrow=none;" edge="1" parent="1" source="UdAvU8H2Gq9x_DnB5OPP-9" target="UdAvU8H2Gq9x_DnB5OPP-14">
          <mxGeometry relative="1" as="geometry">
            <mxPoint x="460" y="355" as="sourcePoint" />
            <mxPoint x="630" y="355" as="targetPoint" />
          </mxGeometry>
        </mxCell>
        <mxCell id="UdAvU8H2Gq9x_DnB5OPP-16" value="Monitoring System" style="rounded=1;whiteSpace=wrap;html=1;" vertex="1" parent="1">
          <mxGeometry x="485" y="170" width="120" height="60" as="geometry" />
        </mxCell>
        <mxCell id="UdAvU8H2Gq9x_DnB5OPP-17" value="" style="endArrow=classic;html=1;rounded=0;exitX=1;exitY=0.5;exitDx=0;exitDy=0;entryX=0;entryY=0.5;entryDx=0;entryDy=0;" edge="1" parent="1" source="UdAvU8H2Gq9x_DnB5OPP-6" target="UdAvU8H2Gq9x_DnB5OPP-16">
          <mxGeometry width="50" height="50" relative="1" as="geometry">
            <mxPoint x="290" y="290" as="sourcePoint" />
            <mxPoint x="340" y="240" as="targetPoint" />
          </mxGeometry>
        </mxCell>
        <mxCell id="UdAvU8H2Gq9x_DnB5OPP-18" value="" style="endArrow=classic;html=1;rounded=0;exitX=0.5;exitY=0;exitDx=0;exitDy=0;exitPerimeter=0;entryX=0.5;entryY=1;entryDx=0;entryDy=0;" edge="1" parent="1" source="UdAvU8H2Gq9x_DnB5OPP-9" target="UdAvU8H2Gq9x_DnB5OPP-16">
          <mxGeometry width="50" height="50" relative="1" as="geometry">
            <mxPoint x="450" y="300" as="sourcePoint" />
            <mxPoint x="500" y="250" as="targetPoint" />
          </mxGeometry>
        </mxCell>
        <mxCell id="UdAvU8H2Gq9x_DnB5OPP-19" value="" style="endArrow=classic;html=1;rounded=0;entryX=0.5;entryY=1;entryDx=0;entryDy=0;" edge="1" parent="1" source="UdAvU8H2Gq9x_DnB5OPP-14" target="UdAvU8H2Gq9x_DnB5OPP-16">
          <mxGeometry width="50" height="50" relative="1" as="geometry">
            <mxPoint x="420" y="320" as="sourcePoint" />
            <mxPoint x="555" y="240" as="targetPoint" />
          </mxGeometry>
        </mxCell>
        <mxCell id="UdAvU8H2Gq9x_DnB5OPP-20" value="Cassandra" style="shape=cylinder3;whiteSpace=wrap;html=1;boundedLbl=1;backgroundOutline=1;size=15;" vertex="1" parent="1">
          <mxGeometry x="360" y="430" width="100" height="90" as="geometry" />
        </mxCell>
        <mxCell id="UdAvU8H2Gq9x_DnB5OPP-21" value="" style="endArrow=classic;startArrow=classic;html=1;rounded=0;entryX=0.5;entryY=1;entryDx=0;entryDy=0;entryPerimeter=0;" edge="1" parent="1" source="UdAvU8H2Gq9x_DnB5OPP-20" target="UdAvU8H2Gq9x_DnB5OPP-9">
          <mxGeometry width="50" height="50" relative="1" as="geometry">
            <mxPoint x="530" y="490" as="sourcePoint" />
            <mxPoint x="580" y="440" as="targetPoint" />
          </mxGeometry>
        </mxCell>
        <mxCell id="UdAvU8H2Gq9x_DnB5OPP-22" value="" style="rounded=1;whiteSpace=wrap;html=1;" vertex="1" parent="1">
          <mxGeometry x="90" y="480" width="120" height="60" as="geometry" />
        </mxCell>
        <mxCell id="UdAvU8H2Gq9x_DnB5OPP-23" value="" style="rounded=1;whiteSpace=wrap;html=1;" vertex="1" parent="1">
          <mxGeometry x="100" y="500" width="120" height="60" as="geometry" />
        </mxCell>
        <mxCell id="UdAvU8H2Gq9x_DnB5OPP-24" value="" style="endArrow=classic;html=1;rounded=0;entryX=1;entryY=0.5;entryDx=0;entryDy=0;exitX=0;exitY=0.5;exitDx=0;exitDy=0;exitPerimeter=0;" edge="1" parent="1" source="UdAvU8H2Gq9x_DnB5OPP-20" target="UdAvU8H2Gq9x_DnB5OPP-23">
          <mxGeometry width="50" height="50" relative="1" as="geometry">
            <mxPoint x="280" y="520" as="sourcePoint" />
            <mxPoint x="330" y="470" as="targetPoint" />
          </mxGeometry>
        </mxCell>
        <mxCell id="UdAvU8H2Gq9x_DnB5OPP-25" value="&lt;div&gt;Redis &lt;br&gt;&lt;/div&gt;&lt;div&gt;Cache&lt;br&gt;&lt;/div&gt;" style="rounded=1;whiteSpace=wrap;html=1;" vertex="1" parent="1">
          <mxGeometry x="270" y="320" width="50" height="60" as="geometry" />
        </mxCell>
        <mxCell id="UdAvU8H2Gq9x_DnB5OPP-31" value="managed redis" style="ellipse;whiteSpace=wrap;html=1;" vertex="1" parent="1">
          <mxGeometry x="270" y="270" width="120" height="40" as="geometry" />
        </mxCell>
        <mxCell id="UdAvU8H2Gq9x_DnB5OPP-32" value="" style="endArrow=classic;html=1;rounded=0;entryX=0;entryY=0.75;entryDx=0;entryDy=0;exitX=1;exitY=0.5;exitDx=0;exitDy=0;" edge="1" parent="1" source="UdAvU8H2Gq9x_DnB5OPP-31" target="UdAvU8H2Gq9x_DnB5OPP-16">
          <mxGeometry width="50" height="50" relative="1" as="geometry">
            <mxPoint x="410" y="290" as="sourcePoint" />
            <mxPoint x="460" y="240" as="targetPoint" />
          </mxGeometry>
        </mxCell>
        <mxCell id="UdAvU8H2Gq9x_DnB5OPP-34" value="partition cleaning" style="text;html=1;strokeColor=none;fillColor=none;align=center;verticalAlign=middle;whiteSpace=wrap;rounded=0;" vertex="1" parent="1">
          <mxGeometry x="605" y="80" width="180" height="30" as="geometry" />
        </mxCell>
        <mxCell id="UdAvU8H2Gq9x_DnB5OPP-36" value="&lt;div&gt;race condition&lt;/div&gt;&lt;div&gt;&lt;br&gt;&lt;/div&gt;&lt;div&gt;reconciliation&lt;/div&gt;&lt;div&gt;&lt;br&gt;&lt;/div&gt;&lt;div&gt;quorum to cassandra&lt;br&gt;&lt;/div&gt;&lt;div&gt;&lt;br&gt;&lt;/div&gt;&lt;div&gt;&lt;br&gt;&lt;/div&gt;&lt;div&gt;&lt;br&gt;&lt;/div&gt;&lt;div&gt;async writes &lt;br&gt;&lt;/div&gt;&lt;div&gt;on write&lt;/div&gt;&lt;div&gt;redis&lt;br&gt;&lt;/div&gt;" style="text;html=1;align=center;verticalAlign=middle;resizable=0;points=[];autosize=1;strokeColor=none;fillColor=none;" vertex="1" parent="1">
          <mxGeometry x="650" y="105" width="130" height="160" as="geometry" />
        </mxCell>
      </root>
    </mxGraphModel>
  </diagram>
</mxfile>
